<svg width="257" height="92" viewBox="0 0 257 92" fill="none" xmlns="http://www.w3.org/2000/svg">
<rect x="0.5" y="0.5" width="256" height="89" rx="4.5" fill="white" stroke="#141414"/>
<line x1="29" y1="16" x2="231" y2="16" stroke="#C4C4C4" stroke-width="8" stroke-linecap="round"/>
<line x1="59" y1="31" x2="201" y2="31" stroke="#C4C4C4" stroke-width="8" stroke-linecap="round"/>
<line x1="39" y1="72" x2="91" y2="72" stroke="#C4C4C4" stroke-width="8" stroke-linecap="round"/>
<line y1="54" x2="257" y2="54" stroke="#DDDEE0" stroke-width="2"/>
<line x1="130.5" y1="55.3984" x2="130.5" y2="91.3984" stroke="#C4C4C4"/>
<path d="M256 72C256 74.1446 254.567 76.3829 251.505 78.5836C248.467 80.7673 244.006 82.7751 238.403 84.4783C227.211 87.8807 211.689 90 194.5 90C177.311 90 161.789 87.8807 150.597 84.4783C144.994 82.7751 140.533 80.7673 137.495 78.5836C134.433 76.3829 133 74.1446 133 72C133 69.8554 134.433 67.6171 137.495 65.4164C140.533 63.2327 144.994 61.2249 150.597 59.5217C161.789 56.1193 177.311 54 194.5 54C211.689 54 227.211 56.1193 238.403 59.5217C244.006 61.2249 248.467 63.2327 251.505 65.4164C254.567 67.6171 256 69.8554 256 72Z" stroke="#01A2BB" stroke-width="2"/>
<path d="M182.556 77.92C182.616 78.064 182.646 78.184 182.646 78.28C182.646 78.508 182.55 78.7 182.358 78.856C182.178 79.012 181.974 79.09 181.746 79.09C181.59 79.09 181.44 79.048 181.296 78.964C181.164 78.868 181.062 78.736 180.99 78.568L179.802 75.868H173.214L172.026 78.568C171.954 78.736 171.846 78.868 171.702 78.964C171.558 79.048 171.408 79.09 171.252 79.09C171.012 79.09 170.796 79.012 170.604 78.856C170.424 78.7 170.334 78.508 170.334 78.28C170.334 78.184 170.364 78.064 170.424 77.92L175.5 66.814C175.584 66.622 175.716 66.472 175.896 66.364C176.088 66.256 176.286 66.202 176.49 66.202C176.694 66.202 176.886 66.256 177.066 66.364C177.258 66.472 177.396 66.622 177.48 66.814L182.556 77.92ZM173.88 74.392H179.154L176.508 68.434L173.88 74.392ZM185.281 79.09C185.017 79.09 184.795 79.018 184.615 78.874C184.447 78.73 184.363 78.514 184.363 78.226V67.102C184.363 66.814 184.447 66.598 184.615 66.454C184.795 66.298 185.017 66.22 185.281 66.22C185.545 66.22 185.761 66.298 185.929 66.454C186.097 66.598 186.181 66.814 186.181 67.102V78.226C186.181 78.514 186.097 78.73 185.929 78.874C185.761 79.018 185.545 79.09 185.281 79.09ZM189.64 79.09C189.376 79.09 189.154 79.018 188.974 78.874C188.806 78.73 188.722 78.514 188.722 78.226V67.102C188.722 66.814 188.806 66.598 188.974 66.454C189.154 66.298 189.376 66.22 189.64 66.22C189.904 66.22 190.12 66.298 190.288 66.454C190.456 66.598 190.54 66.814 190.54 67.102V78.226C190.54 78.514 190.456 78.73 190.288 78.874C190.12 79.018 189.904 79.09 189.64 79.09ZM196.897 79.126C196.033 79.126 195.271 78.94 194.611 78.568C193.963 78.196 193.459 77.668 193.099 76.984C192.751 76.288 192.577 75.484 192.577 74.572C192.577 73.648 192.751 72.844 193.099 72.16C193.459 71.464 193.963 70.93 194.611 70.558C195.271 70.186 196.033 70 196.897 70C197.761 70 198.517 70.186 199.165 70.558C199.825 70.93 200.329 71.464 200.677 72.16C201.037 72.844 201.217 73.648 201.217 74.572C201.217 75.484 201.037 76.288 200.677 76.984C200.329 77.668 199.825 78.196 199.165 78.568C198.517 78.94 197.761 79.126 196.897 79.126ZM196.897 77.686C197.701 77.686 198.313 77.422 198.733 76.894C199.165 76.366 199.381 75.592 199.381 74.572C199.381 73.564 199.165 72.796 198.733 72.268C198.301 71.728 197.689 71.458 196.897 71.458C196.105 71.458 195.493 71.728 195.061 72.268C194.629 72.796 194.413 73.564 194.413 74.572C194.413 75.592 194.623 76.366 195.043 76.894C195.475 77.422 196.093 77.686 196.897 77.686ZM215.07 70.594C215.202 70.234 215.448 70.054 215.808 70.054C216.036 70.054 216.24 70.132 216.42 70.288C216.6 70.444 216.69 70.636 216.69 70.864C216.69 70.984 216.666 71.092 216.618 71.188L213.63 78.478C213.558 78.67 213.438 78.82 213.27 78.928C213.102 79.024 212.916 79.072 212.712 79.072C212.52 79.072 212.34 79.024 212.172 78.928C212.004 78.82 211.884 78.67 211.812 78.478L209.472 72.7L207.186 78.478C207.114 78.67 206.994 78.82 206.826 78.928C206.67 79.024 206.49 79.072 206.286 79.072C206.094 79.072 205.908 79.024 205.728 78.928C205.56 78.82 205.434 78.67 205.35 78.478L202.38 71.188C202.332 71.092 202.308 70.99 202.308 70.882C202.308 70.642 202.404 70.444 202.596 70.288C202.8 70.132 203.022 70.054 203.262 70.054C203.622 70.054 203.868 70.228 204 70.576L206.322 76.714L208.698 70.63C208.77 70.438 208.884 70.294 209.04 70.198C209.196 70.102 209.364 70.054 209.544 70.054C209.712 70.054 209.874 70.102 210.03 70.198C210.186 70.294 210.3 70.438 210.372 70.63L212.748 76.678L215.07 70.594Z" fill="#01A2BB"/>
</svg>
