<svg width="24" height="24" viewBox="0 0 24 24" fill="none" xmlns="http://www.w3.org/2000/svg">
<g clip-path="url(#clip0_1_56)">
<path d="M22 4H2.01L2 20H22V4ZM20 18H4V12H20V18ZM20 8H4V6H20V8Z" fill="white"/>
<path d="M6.57307 17.04C6.23973 17.04 5.9514 16.9683 5.70807 16.825C5.46473 16.6783 5.2764 16.47 5.14307 16.2C5.01307 15.9267 4.94807 15.605 4.94807 15.235C4.94807 14.8683 5.01307 14.55 5.14307 14.28C5.2764 14.0067 5.46473 13.7983 5.70807 13.655C5.9514 13.5083 6.23973 13.435 6.57307 13.435C6.7964 13.435 7.0064 13.4717 7.20307 13.545C7.40307 13.615 7.5764 13.7167 7.72307 13.85C7.7764 13.9 7.80307 13.9583 7.80307 14.025C7.80307 14.0717 7.78973 14.1133 7.76307 14.15C7.7364 14.1833 7.70473 14.2 7.66807 14.2C7.62807 14.2 7.57973 14.1817 7.52307 14.145C7.35307 14.0117 7.19807 13.9183 7.05807 13.865C6.9214 13.8117 6.76307 13.785 6.58307 13.785C6.1964 13.785 5.89807 13.9117 5.68807 14.165C5.4814 14.415 5.37807 14.7717 5.37807 15.235C5.37807 15.7017 5.4814 16.0617 5.68807 16.315C5.89807 16.565 6.1964 16.69 6.58307 16.69C6.75973 16.69 6.91807 16.6633 7.05807 16.61C7.19807 16.5567 7.35307 16.4633 7.52307 16.33C7.57973 16.2933 7.62807 16.275 7.66807 16.275C7.70473 16.275 7.7364 16.2917 7.76307 16.325C7.78973 16.3583 7.80307 16.4 7.80307 16.45C7.80307 16.5167 7.7764 16.575 7.72307 16.625C7.5764 16.7583 7.40307 16.8617 7.20307 16.935C7.0064 17.005 6.7964 17.04 6.57307 17.04ZM9.90314 17.04C9.56981 17.04 9.28148 16.9683 9.03814 16.825C8.79481 16.6783 8.60648 16.47 8.47314 16.2C8.34314 15.9267 8.27814 15.605 8.27814 15.235C8.27814 14.8683 8.34314 14.55 8.47314 14.28C8.60648 14.0067 8.79481 13.7983 9.03814 13.655C9.28148 13.5083 9.56981 13.435 9.90314 13.435C10.1265 13.435 10.3365 13.4717 10.5331 13.545C10.7331 13.615 10.9065 13.7167 11.0531 13.85C11.1065 13.9 11.1331 13.9583 11.1331 14.025C11.1331 14.0717 11.1198 14.1133 11.0931 14.15C11.0665 14.1833 11.0348 14.2 10.9981 14.2C10.9581 14.2 10.9098 14.1817 10.8531 14.145C10.6831 14.0117 10.5281 13.9183 10.3881 13.865C10.2515 13.8117 10.0931 13.785 9.91314 13.785C9.52648 13.785 9.22814 13.9117 9.01814 14.165C8.81148 14.415 8.70814 14.7717 8.70814 15.235C8.70814 15.7017 8.81148 16.0617 9.01814 16.315C9.22814 16.565 9.52648 16.69 9.91314 16.69C10.0898 16.69 10.2481 16.6633 10.3881 16.61C10.5281 16.5567 10.6831 16.4633 10.8531 16.33C10.9098 16.2933 10.9581 16.275 10.9981 16.275C11.0348 16.275 11.0665 16.2917 11.0931 16.325C11.1198 16.3583 11.1331 16.4 11.1331 16.45C11.1331 16.5167 11.1065 16.575 11.0531 16.625C10.9065 16.7583 10.7331 16.8617 10.5331 16.935C10.3365 17.005 10.1265 17.04 9.90314 17.04Z" fill="white"/>
</g>
<defs>
<clipPath id="clip0_1_56">
<rect width="24" height="24" fill="white"/>
</clipPath>
</defs>
</svg>
